<svg width="32" height="32" viewBox="0 0 32 32" fill="none" xmlns="http://www.w3.org/2000/svg">
<path fill-rule="evenodd" clip-rule="evenodd" d="M16 2.66666C8.63996 2.66666 2.66663 8.63999 2.66663 16C2.66663 23.36 8.63996 29.3333 16 29.3333C23.36 29.3333 29.3333 23.36 29.3333 16C29.3333 8.63999 23.36 2.66666 16 2.66666ZM9.42663 24.3733C9.99996 23.1733 13.4933 22 16 22C18.5066 22 22.0133 23.1733 22.5733 24.3733C20.76 25.8133 18.48 26.6667 16 26.6667C13.52 26.6667 11.24 25.8133 9.42663 24.3733ZM16 19.3333C17.9466 19.3333 22.5733 20.12 24.48 22.44C25.84 20.6533 26.6666 18.4267 26.6666 16C26.6666 10.12 21.88 5.33332 16 5.33332C10.12 5.33332 5.33329 10.12 5.33329 16C5.33329 18.4267 6.15996 20.6533 7.51996 22.44C9.42663 20.12 14.0533 19.3333 16 19.3333ZM16 7.99999C13.4133 7.99999 11.3333 10.08 11.3333 12.6667C11.3333 15.2533 13.4133 17.3333 16 17.3333C18.5866 17.3333 20.6666 15.2533 20.6666 12.6667C20.6666 10.08 18.5866 7.99999 16 7.99999ZM14 12.6667C14 13.7733 14.8933 14.6667 16 14.6667C17.1066 14.6667 18 13.7733 18 12.6667C18 11.56 17.1066 10.6667 16 10.6667C14.8933 10.6667 14 11.56 14 12.6667Z" fill="#E9E9E9"/>
</svg>
