<svg width="32" height="32" viewBox="0 0 32 32" fill="none" xmlns="http://www.w3.org/2000/svg">
<path fill-rule="evenodd" clip-rule="evenodd" d="M24.3951 15.96C23.9417 16.7867 23.0617 17.3333 22.0617 17.3333H12.1284L10.6617 20H26.6617V22.6667H10.6617C8.63508 22.6667 7.35508 20.4933 8.32841 18.7067L10.1284 15.4533L5.32841 5.33332H2.66174V2.66666H7.02174L8.27508 5.33332H28.0084C29.0217 5.33332 29.6617 6.42666 29.1684 7.30666L24.3951 15.96ZM25.7418 7.99999H9.54175L12.7018 14.6667H22.0618L25.7418 7.99999ZM10.6617 24C9.19508 24 8.00841 25.2 8.00841 26.6667C8.00841 28.1333 9.19508 29.3333 10.6617 29.3333C12.1284 29.3333 13.3284 28.1333 13.3284 26.6667C13.3284 25.2 12.1284 24 10.6617 24ZM21.3417 26.6667C21.3417 25.2 22.5284 24 23.9951 24C25.4617 24 26.6617 25.2 26.6617 26.6667C26.6617 28.1333 25.4617 29.3333 23.9951 29.3333C22.5284 29.3333 21.3417 28.1333 21.3417 26.6667Z" fill="#E9E9E9"/>
</svg>
