<svg width="32" height="32" viewBox="0 0 32 32" fill="none" xmlns="http://www.w3.org/2000/svg">
<g id="local_dining_24px">
<g id="burger 1" clip-path="url(#clip0)">
<path id="Vector" d="M30.2 18.8617C30.2 19.4401 29.9658 19.9631 29.5872 20.3417C29.2079 20.7204 28.6849 20.9546 28.1072 20.9546H3.89286C2.73749 20.9546 1.80005 20.0178 1.80005 18.8617C1.80005 18.5521 1.86705 18.2587 1.98742 17.9946C2.09217 17.7649 2.23661 17.5581 2.41286 17.3817C2.79211 17.0031 3.31517 16.7689 3.89286 16.7689H28.1072C28.9536 16.7689 29.6829 17.2711 30.0127 17.9946C30.133 18.2587 30.2 18.5521 30.2 18.8617Z" fill="#884D00"/>
<path id="Vector_2" d="M30.0127 17.9946C29.9079 18.2236 29.7629 18.4311 29.5872 18.6067C29.208 18.9854 28.6849 19.2196 28.1072 19.2196H3.89286C3.04718 19.2196 2.31793 18.7174 1.98743 17.9946C2.09218 17.765 2.23655 17.5581 2.41286 17.3818C2.79211 17.0032 3.31518 16.769 3.89286 16.769H28.1072C28.9536 16.7689 29.6828 17.2712 30.0127 17.9946Z" fill="#AA6100"/>
<path id="Vector_3" d="M32 22.6439C32 25.3404 30.7516 27.3441 28.7336 28.6731C26.715 30.0028 23.9268 30.6579 20.8471 30.6579H11.1528C4.99356 30.6579 0 28.0369 0 22.6439C0 22.3434 0.0748125 22.0584 0.210125 21.8021C0.324625 21.5836 0.482687 21.3864 0.674625 21.2186C1.091 20.8536 1.66738 20.6279 2.30294 20.6279H29.6971C30.6254 20.6279 31.4256 21.1092 31.7899 21.8021C31.9252 22.0585 32 22.3434 32 22.6439Z" fill="#FFA733"/>
<path id="Vector_4" d="M31.7898 21.8022C31.3553 23.5977 30.2663 24.9963 28.7336 26.0059C26.715 27.3356 23.9268 27.9907 20.8471 27.9907H11.1528C5.73377 27.9907 1.21777 25.9624 0.210083 21.8022C0.324583 21.5836 0.482645 21.3865 0.674583 21.2186C1.09096 20.8537 1.66733 20.6279 2.3029 20.6279H29.6971C30.6254 20.6279 31.4255 21.1094 31.7898 21.8022Z" fill="#FFB655"/>
<path id="Vector_5" d="M24.8992 15.8907L19.4854 21.3046C19.3495 21.4399 19.2043 21.5596 19.0508 21.663C17.9046 22.4391 16.3342 22.3201 15.3187 21.3046L9.90491 15.8907H24.8992Z" fill="#EEBF00"/>
<path id="Vector_6" d="M24.8992 15.8907L19.4854 21.3046C19.3494 21.4399 19.2043 21.5596 19.0508 21.663C18.6378 21.5225 18.25 21.2876 17.9208 20.9578L12.8538 15.8907H24.8992Z" fill="#FFD422"/>
<path id="Vector_7" d="M31.3923 16.646C31.3923 16.9296 31.3455 17.2198 31.244 17.5028C30.8465 18.6119 29.7823 19.0426 28.9528 18.4298L27.9582 17.6953C27.264 17.1821 26.3787 17.3922 25.8764 18.1898L25.8341 18.2568C25.352 19.0231 24.5115 19.2508 23.8252 18.8019L21.5978 17.3453C21.0838 17.0096 20.4678 17.0461 19.9812 17.4423L18.1962 18.8943C17.6835 19.3113 17.0304 19.3288 16.5041 18.9391L14.4679 17.4299C13.9475 17.0441 13.3022 17.0564 12.7915 17.4624L10.9375 18.9346C10.4398 19.3295 9.81397 19.3523 9.29941 18.9951L6.89891 17.3271C6.4266 16.9993 5.85741 16.9901 5.3786 17.3031L3.13947 18.7674C1.64841 18.9594 0.923097 17.8645 0.923097 17.8645C0.565972 17.2439 0.53016 16.5081 0.72341 15.8908C0.953035 15.1531 1.50928 14.5845 2.23266 14.5845H29.768C30.4771 14.5845 31.0437 15.1446 31.2767 15.8875C31.352 16.1256 31.3923 16.3826 31.3923 16.646Z" fill="#6DC82A"/>
<path id="Vector_8" d="M31.2766 15.8875C31.2668 15.92 31.2558 15.9519 31.2441 15.9844C30.8466 17.0943 29.7823 17.5249 28.9529 16.9121L27.9582 16.177C27.2641 15.6644 26.3787 15.8745 25.8764 16.6714L25.8341 16.7391C25.3521 17.5054 24.5116 17.7331 23.8253 17.2842L21.5978 15.8276C21.0839 15.4913 20.4678 15.5284 19.9813 15.9246L18.1962 17.3766C17.6836 17.7936 17.0304 17.8105 16.5041 17.4208L14.468 15.9116C13.9475 15.5258 13.3022 15.5388 12.7915 15.9441L10.9375 17.4169C10.4398 17.8111 9.81395 17.8345 9.29939 17.4774L6.89889 15.8094C6.42658 15.4809 5.85739 15.4718 5.37858 15.7853L3.13945 17.249C1.64839 17.4416 0.923076 16.3461 0.923076 16.3461C0.839139 16.1997 0.772826 16.0468 0.723389 15.8907C0.953014 15.153 1.50926 14.5844 2.23264 14.5844H29.768C30.477 14.5844 31.0436 15.1446 31.2766 15.8875Z" fill="#7ED63E"/>
<path id="Vector_9" d="M30.8368 13.2456C30.8414 13.4623 30.8128 13.6711 30.7568 13.8682C30.5051 14.7451 29.6971 15.3866 28.7395 15.3866C24.9794 15.3866 14.9643 15.302 13.4538 15.3521C13.42 15.3534 13.3862 15.3547 13.353 15.3553C11.4457 15.4275 11.0111 15.7333 11.0111 16.7501V20.4705C11.0111 20.6618 10.9337 20.8354 10.8082 20.961C10.6826 21.0866 10.5095 21.1639 10.3183 21.1639C9.9351 21.1639 9.62478 21.4743 9.62478 21.8574V23.4779C9.62478 23.6425 9.60528 23.8019 9.56753 23.9554C9.35353 24.8415 8.55397 25.4992 7.59378 25.4992H7.54241C6.45078 25.4992 5.56735 24.6125 5.5706 23.5209L5.57972 20.5876C5.58035 20.3626 5.6721 20.1583 5.81978 20.0113C5.9681 19.8636 6.17172 19.7725 6.39747 19.7725C6.84897 19.7725 7.21522 19.4063 7.21522 18.9548V16.7501C7.21522 15.9968 6.60503 15.3866 5.85172 15.3866H3.30022C2.15203 15.3866 1.18597 14.4804 1.16253 13.3322C1.1391 12.1541 2.0876 11.1913 3.26053 11.1913H28.6979C29.8467 11.1913 30.8141 12.0974 30.8368 13.2456Z" fill="#FF3501"/>
<path id="Vector_10" d="M30.8368 13.2456C30.8413 13.4623 30.8127 13.6711 30.7568 13.8682C26.7761 13.8643 17.2646 13.7856 15.7957 13.8337C13.8024 13.8994 13.3529 14.198 13.3529 15.2324V15.3553C11.4456 15.4275 11.011 15.7333 11.011 16.7501V20.4705C11.011 20.6618 10.9336 20.8354 10.8081 20.961C10.6825 21.0866 10.5094 21.1639 10.3182 21.1639C9.935 21.1639 9.62469 21.4743 9.62469 21.8574V23.4779C9.62469 23.6425 9.60519 23.8019 9.56744 23.9554C8.62675 23.8039 7.90919 22.9861 7.91244 22.0025L7.92157 19.0699C7.92219 18.8441 8.01394 18.6405 8.16163 18.4935C8.30994 18.3458 8.51357 18.2548 8.73932 18.2548C9.19082 18.2548 9.55707 17.8885 9.55707 17.437V15.2323C9.55707 14.479 8.94688 13.8688 8.19357 13.8688H5.64207C4.49388 13.8688 3.52782 12.9626 3.50438 11.8144C3.49982 11.5978 3.52844 11.389 3.58507 11.1913H28.6978C29.8466 11.1913 30.814 12.0974 30.8368 13.2456Z" fill="#FF5023"/>
<path id="Vector_11" d="M18.8357 9.05875L14.194 13.7023C13.7289 14.1674 13.1805 14.4986 12.5963 14.6944C11.156 15.181 9.50105 14.8499 8.3548 13.7023L3.7113 9.05875H18.8357Z" fill="#EEBF00"/>
<path id="Vector_12" d="M18.8357 9.05875L14.1941 13.7023C13.7289 14.1674 13.1805 14.4986 12.5963 14.6944C12.0128 14.4986 11.4644 14.1674 10.9999 13.7023L6.35632 9.05875H18.8357Z" fill="#FFD422"/>
<path id="Vector_13" d="M32 9.71194C32 9.74644 31.9987 9.78025 31.9967 9.81406C31.9714 10.2506 31.784 10.6441 31.4939 10.9343C31.1809 11.2472 30.749 11.4404 30.2715 11.4404H1.7285C0.774125 11.4404 0 10.6662 0 9.71194C0 7.64062 0.960187 6.08125 2.41025 4.90831C3.58706 3.95594 5.08719 3.25787 6.65763 2.74594C11.0514 1.31544 16 1.34206 16 1.34206C16 1.34206 32 1.25556 32 9.71194Z" fill="#FFA733"/>
<path id="Vector_14" d="M32.0001 9.71194C32.0001 9.74644 31.9988 9.78025 31.9968 9.81406H5.24144C4.28713 9.81406 3.51294 9.03994 3.51294 8.08556C3.51294 6.01425 4.47313 4.45487 5.92319 3.282C6.15606 3.09331 6.40131 2.91512 6.65763 2.74594C11.0514 1.31544 16.0001 1.34206 16.0001 1.34206C16.0001 1.34206 32.0001 1.25556 32.0001 9.71194Z" fill="#FFB655"/>
<g id="Group">
<path id="Vector_15" d="M24.6 4.36594C24.8775 4.65957 24.8644 5.12251 24.5708 5.40001C24.2772 5.67744 23.8142 5.66432 23.5368 5.37076C23.2594 5.07719 22.7487 4.05988 23.0423 3.78238C23.3359 3.50488 24.3226 4.07226 24.6 4.36594Z" fill="#FFF5CC"/>
<path id="Vector_16" d="M20.7227 7.98089C20.8676 8.35801 20.6792 8.78114 20.3021 8.92595C19.925 9.07076 19.5019 8.88245 19.3571 8.50532C19.2123 8.1282 19.1272 6.99314 19.5043 6.84832C19.8814 6.70357 20.5779 7.60376 20.7227 7.98089Z" fill="#FFF5CC"/>
<path id="Vector_17" d="M16.7314 4.97244C16.7314 5.37644 16.4039 5.70388 16 5.70388C15.596 5.70388 15.2686 5.37638 15.2686 4.97244C15.2686 4.56844 15.5961 3.47838 16 3.47838C16.404 3.47832 16.7314 4.56844 16.7314 4.97244Z" fill="#FFF5CC"/>
<path id="Vector_18" d="M12.7096 8.43925C12.6086 8.83037 12.2096 9.06556 11.8185 8.96456C11.4274 8.86356 11.1922 8.46456 11.2932 8.07343C11.3942 7.68231 11.9839 6.70875 12.3751 6.80975C12.7662 6.91075 12.8106 8.04818 12.7096 8.43925Z" fill="#FFF5CC"/>
<path id="Vector_19" d="M8.68556 5.25312C8.50943 5.61662 8.07199 5.76862 7.70837 5.59249C7.34487 5.41637 7.19287 4.97893 7.36899 4.6153C7.54512 4.2518 8.31505 3.41342 8.67868 3.58961C9.04224 3.7658 8.86168 4.88961 8.68556 5.25312Z" fill="#FFF5CC"/>
</g>
</g>
</g>
<defs>
<clipPath id="clip0">
<rect width="32" height="32" fill="white"/>
</clipPath>
</defs>
</svg>
