<svg width="32" height="32" viewBox="0 0 32 32" fill="none" xmlns="http://www.w3.org/2000/svg">
<g clip-path="url(#clip0)">
<path d="M0.27124 14.6441H31.7289V28.7458C31.7289 30.5432 30.2721 32 28.4746 32H0.27124V14.6441Z" fill="#F0DBC2"/>
<path d="M0.27124 17.8983H26.8475C27.7462 17.8983 28.4746 18.6267 28.4746 19.5254V27.1187C28.4746 28.0174 27.7462 28.7458 26.8475 28.7458H0.27124V17.8983Z" fill="#F2B9B8"/>
<path d="M0.27124 17.8983H26.8475C27.7462 17.8983 28.4746 18.6267 28.4746 19.5254V27.1187C28.4746 28.0174 27.7462 28.7458 26.8475 28.7458H0.27124V17.8983Z" fill="#F2B9B8"/>
<path d="M0.27124 14.6441L19.2543 3.25424C25.7118 3.2553 31.1106 8.16437 31.724 14.5926L31.7289 14.6441H0.27124Z" fill="#F29C9B"/>
<path d="M25.2203 9.22038C27.0176 9.22038 28.4746 7.76341 28.4746 5.96613C28.4746 4.16886 27.0176 2.71188 25.2203 2.71188C23.423 2.71188 21.9661 4.16886 21.9661 5.96613C21.9661 7.76341 23.423 9.22038 25.2203 9.22038Z" fill="#F0614A"/>
<path d="M26.8399 3.14574C26.7618 5.56474 24.819 7.50749 22.4 7.58561C23.2917 9.14605 25.2795 9.68836 26.8399 8.7973C28.4003 7.90561 28.9426 5.91786 28.0516 4.35742C27.763 3.85249 27.3448 3.4343 26.8399 3.14574Z" fill="#EA5242"/>
<path d="M25.7627 4.88137H24.678C24.6813 2.18687 26.8649 0.00325 29.5594 0V1.08475C27.4637 1.08694 25.7649 2.78562 25.7627 4.88137Z" fill="#965735"/>
<path d="M19.9555 7.43454L20.7225 6.66751L19.0953 5.0403L18.3283 5.80732L19.9555 7.43454Z" fill="#965735"/>
<path d="M13.1306 10.6883L14.7578 9.06107L13.9908 8.29404L12.3636 9.92125L13.1306 10.6883Z" fill="#965735"/>
<path d="M16.1591 12.8587L16.9261 12.0917L15.2989 10.4645L14.5319 11.2315L16.1591 12.8587Z" fill="#965735"/>
<path d="M18.0108 10.6899L19.6381 9.06273L18.871 8.2957L17.2438 9.92292L18.0108 10.6899Z" fill="#965735"/>
<path d="M27.2309 12.8577L28.8582 11.2305L28.0911 10.4635L26.4639 12.0907L27.2309 12.8577Z" fill="#965735"/>
<path d="M21.2651 12.8582L22.8923 11.231L22.1253 10.464L20.4981 12.0912L21.2651 12.8582Z" fill="#965735"/>
<path d="M9.33275 12.8606L10.96 11.2334L10.1929 10.4664L8.56572 12.0936L9.33275 12.8606Z" fill="#965735"/>
<path d="M20.1676 17.8983H26.8475C27.7462 17.8983 28.4746 18.6267 28.4746 19.5255V27.1187C28.4746 28.0174 27.7462 28.7458 26.8475 28.7458H7.60735L3.83948 32H28.4746C30.272 32 31.7289 30.5432 31.7289 28.7458V14.6441H23.936L20.1676 17.8983Z" fill="#EBD3B7"/>
<path d="M26.8474 28.7458C27.7461 28.7458 28.4746 28.0174 28.4746 27.1186V19.5254C28.4746 18.6268 27.7461 17.8983 26.8474 17.8983H20.1676L7.6073 28.7458H26.8474Z" fill="#F2AEAC"/>
<path d="M28.4746 22.7797H0.27124V23.8644H28.4746V22.7797Z" fill="#F28685"/>
</g>
<defs>
<clipPath id="clip0">
<rect width="32" height="32" fill="white"/>
</clipPath>
</defs>
</svg>
