<svg width="32" height="32" viewBox="0 0 32 32" fill="none" xmlns="http://www.w3.org/2000/svg">
<g clip-path="url(#clip0)">
<path d="M0 22.7467C0 24.7737 0.573812 25.389 2.7395 25.389C2.80719 25.389 2.87719 25.3866 2.94856 25.3829C2.96856 25.3818 2.98837 25.3806 3.00819 25.3792C3.04281 25.3769 3.07825 25.3737 3.11363 25.3707C5.56631 25.1361 7.04362 22.5919 8.49269 19.448C9.1505 18.0209 9.80275 16.4705 10.5376 14.9567V14.9566C2.49944 14.9566 0 20.6427 0 22.7467Z" fill="#ECB53A"/>
<path d="M20.9236 6.61099C9.22471 6.61099 9.85834 24.7254 3.11365 25.3707C5.58852 25.1602 9.99033 23.0468 12.7438 23.0468C17.2457 23.0468 18.6211 24.3569 22.6308 24.3569C26.6404 24.3569 32 22.4116 32 15.8214C32 10.5326 26.6384 6.61099 20.9236 6.61099Z" fill="#F6E27B"/>
<path d="M18.96 18.4468C18.7131 18.4468 18.4713 18.3468 18.2969 18.1724C18.1225 17.9981 18.0225 17.7562 18.0225 17.5093C18.0225 17.2625 18.1225 17.0206 18.2969 16.8462C18.4713 16.6719 18.7131 16.5718 18.96 16.5718C19.2068 16.5718 19.4481 16.6719 19.6225 16.8462C19.7975 17.0212 19.8975 17.2625 19.8975 17.5093C19.8975 17.7562 19.7975 17.9981 19.6225 18.1724C19.4481 18.3469 19.2069 18.4468 18.96 18.4468Z" fill="#ECB53A"/>
<path d="M23.3776 14.9094C23.1313 14.9094 22.8894 14.8094 22.7144 14.635C22.5401 14.4606 22.4401 14.2188 22.4401 13.9719C22.4401 13.725 22.5401 13.4838 22.7144 13.3088C22.8894 13.1344 23.1307 13.0344 23.3776 13.0344C23.6244 13.0344 23.8662 13.1344 24.0406 13.3088C24.215 13.4838 24.3151 13.7256 24.3151 13.9719C24.3151 14.2188 24.2151 14.46 24.0406 14.635C23.8656 14.8094 23.6244 14.9094 23.3776 14.9094Z" fill="#ECB53A"/>
</g>
<defs>
<clipPath id="clip0">
<rect width="32" height="32" fill="white"/>
</clipPath>
</defs>
</svg>
