<svg width="32" height="32" viewBox="0 0 32 32" fill="none" xmlns="http://www.w3.org/2000/svg">
<path fill-rule="evenodd" clip-rule="evenodd" d="M2.66663 16C2.66663 8.63999 8.63996 2.66666 16 2.66666C23.36 2.66666 29.3333 8.63999 29.3333 16C29.3333 23.36 23.36 29.3333 16 29.3333C8.63996 29.3333 2.66663 23.36 2.66663 16ZM5.33329 16C5.33329 21.88 10.12 26.6667 16 26.6667C21.88 26.6667 26.6666 21.88 26.6666 16C26.6666 10.12 21.88 5.33332 16 5.33332C10.12 5.33332 5.33329 10.12 5.33329 16ZM8.66663 23.3333L18.68 18.68L23.3333 8.66666L13.32 13.32L8.66663 23.3333ZM17.4666 16C17.4666 15.1867 16.8133 14.5333 16 14.5333C15.1866 14.5333 14.5333 15.1867 14.5333 16C14.5333 16.8133 15.1866 17.4667 16 17.4667C16.8133 17.4667 17.4666 16.8133 17.4666 16Z" fill="#E9E9E9"/>
</svg>
