<svg width="32" height="32" viewBox="0 0 32 32" fill="none" xmlns="http://www.w3.org/2000/svg">
<g clip-path="url(#clip0)">
<path d="M7.21346 3.28677L7.21889 3.2922C8.01867 3.33157 8.77494 3.66812 9.33956 4.23593C10.1926 5.20069 10.8107 6.34976 11.1457 7.59321L8.35245 10.7064C7.01288 10.3891 5.7722 9.7464 4.74024 8.83525C4.17062 8.27187 3.83374 7.51486 3.79651 6.71457L4.54498 4.0461L7.21346 3.28677Z" fill="#E64C3C"/>
<path d="M8.01072 1.139C8.0176 1.92237 7.7401 2.68164 7.22971 3.27595C7.22428 3.28138 7.21886 3.2868 7.21344 3.2868C6.25886 4.23053 4.54496 4.04612 4.54496 4.04612C4.54496 4.04612 4.36056 2.31053 5.31513 1.36138C5.90944 0.850981 6.66871 0.573481 7.45208 0.58036C7.60192 0.574665 7.74734 0.631691 7.85337 0.737717C7.95939 0.843743 8.01642 0.989169 8.01072 1.139Z" fill="#4FBA6F"/>
<path d="M3.79648 6.71459L3.78021 6.73086C3.18548 7.23991 2.42605 7.51554 1.64326 7.50646C1.49343 7.51215 1.348 7.45512 1.24197 7.3491C1.13595 7.24307 1.07892 7.09765 1.08462 6.94781C1.07515 6.164 1.35297 5.40384 1.86564 4.81086C2.81479 3.85629 4.54496 4.04612 4.54496 4.04612C4.54496 4.04612 4.73479 5.75459 3.79648 6.71459Z" fill="#4FBA6F"/>
<path d="M4.54773 4.58903C4.40165 4.5893 4.26164 4.53064 4.15939 4.42632C2.39234 2.61154 1.6341 2.47541 1.62705 2.47487C1.48545 2.47408 1.35021 2.41595 1.2522 2.31375C1.15419 2.21155 1.10177 2.074 1.10691 1.93249C1.11691 1.62851 1.36738 1.3879 1.67152 1.39012C1.91668 1.39012 2.8783 1.55283 4.93661 3.66808C5.08967 3.82424 5.134 4.05704 5.04902 4.25852C4.96404 4.46 4.76639 4.59074 4.54773 4.59012V4.58903Z" fill="#4C8056"/>
<path d="M8.13552 6.50847C8.43506 6.50847 8.67789 6.26564 8.67789 5.96609C8.67789 5.66655 8.43506 5.42372 8.13552 5.42372C7.83597 5.42372 7.59314 5.66655 7.59314 5.96609C7.59314 6.26564 7.83597 6.50847 8.13552 6.50847Z" fill="#F0C419"/>
<path d="M6.50844 8.13561C6.80798 8.13561 7.05081 7.89278 7.05081 7.59323C7.05081 7.29369 6.80798 7.05086 6.50844 7.05086C6.20889 7.05086 5.96606 7.29369 5.96606 7.59323C5.96606 7.89278 6.20889 8.13561 6.50844 8.13561Z" fill="#F0C419"/>
<path d="M10.6793 31.2841C9.84193 31.8981 8.78209 32.1251 7.76672 31.9078C7.51459 31.8419 7.2721 31.7434 7.04537 31.6149C6.8163 31.7425 6.57213 31.8409 6.31859 31.9078C3.99181 32.5044 1.31791 30.1831 0.347062 26.7119C-0.623785 23.2407 0.488079 19.9431 2.82028 19.3464C3.80457 19.1282 4.83524 19.3371 5.65689 19.9214C6.50271 20.4583 7.58261 20.4583 8.42842 19.9214C8.71257 19.7413 9.01422 19.5905 9.32876 19.4712L11.3898 24.9492C11.4006 25.0359 10.6413 31.2081 10.6793 31.2841Z" fill="#E64C3C"/>
<path d="M2.44063 26.6723C2.19715 26.6722 1.98358 26.5098 1.91833 26.2753C1.36348 24.2837 1.69053 22.6658 2.18192 21.8159C2.39218 21.3877 2.76875 21.0645 3.22382 20.9215C3.41158 20.8731 3.61093 20.9285 3.74676 21.0669C3.8826 21.2052 3.93429 21.4056 3.88236 21.5924C3.83043 21.7792 3.68277 21.9242 3.49501 21.9726C3.32913 22.0531 3.19712 22.1897 3.1224 22.3582C2.61656 23.5042 2.56022 24.7985 2.96457 25.984C3.01027 26.1476 2.97665 26.3232 2.87375 26.4584C2.77084 26.5936 2.61053 26.6728 2.44063 26.6723Z" fill="white"/>
<path d="M7.36537 18.598C7.17011 19.3736 5.91181 19.7315 4.54503 19.3953C3.6013 19.162 2.23452 18.0827 1.48604 17.4427C1.37942 17.3537 1.33362 17.2112 1.3684 17.0767C1.40318 16.9422 1.51233 16.8397 1.64876 16.8136C2.60333 16.6183 4.30096 16.3417 5.24469 16.5749C6.61147 16.9112 7.56062 17.817 7.36537 18.598Z" fill="#4FBA6F"/>
<path d="M22.9152 31.3763C22.7355 31.756 22.3536 31.9986 21.9335 32H11.6935C11.2373 32.0024 10.8298 31.7148 10.6793 31.2841C10.6437 31.2052 10.6217 31.1208 10.6142 31.0346L9.3288 19.4712L8.58032 12.7241L10.3051 13.5864C11.6707 14.2698 13.2785 14.2698 14.6441 13.5864C16.0086 12.9066 17.6131 12.9066 18.9776 13.5864L18.983 13.5919C20.348 14.2698 21.9516 14.2698 23.3166 13.5919L25.0468 12.7241L24.0325 21.8522L22.9152 31.3763Z" fill="#F29C1F"/>
<path d="M25.486 8.79728L25.0467 12.7241L23.3165 13.5919C21.9515 14.2698 20.3479 14.2698 18.983 13.5919L18.9775 13.5864C17.613 12.9066 16.0085 12.9066 14.644 13.5864C13.2784 14.2698 11.6706 14.2698 10.305 13.5864L8.58024 12.7241H8.57482L8.35244 10.7064L8.14092 8.79728C8.10785 8.49068 8.20651 8.18445 8.41236 7.95482C8.6182 7.72518 8.91186 7.59374 9.22024 7.59322H24.4067C24.7151 7.59374 25.0087 7.72518 25.2146 7.95482C25.4204 8.18445 25.5191 8.49068 25.486 8.79728Z" fill="#9FC9D3"/>
<path d="M13.0169 29.8305C12.8395 29.8305 12.6732 29.7437 12.5718 29.5981C12.4704 29.4524 12.4466 29.2664 12.5082 29.0999L21.7285 4.15079C21.7669 4.0473 21.836 3.95799 21.9265 3.89479L27.3502 0.0981781C27.5954 -0.0625638 27.9239 0.000621214 28.092 0.24084C28.2601 0.481058 28.2068 0.81135 27.9718 0.986585L22.6874 4.68611L13.5257 29.4763C13.4469 29.6892 13.2439 29.8305 13.0169 29.8305Z" fill="#FF5364"/>
<path d="M12.7457 18.9831C13.4946 18.9831 14.1016 18.376 14.1016 17.6271C14.1016 16.8783 13.4946 16.2712 12.7457 16.2712C11.9968 16.2712 11.3898 16.8783 11.3898 17.6271C11.3898 18.376 11.9968 18.9831 12.7457 18.9831Z" fill="#D25627"/>
<path d="M11.9321 22.2373C12.2317 22.2373 12.4745 21.9945 12.4745 21.6949C12.4745 21.3954 12.2317 21.1526 11.9321 21.1526C11.6326 21.1526 11.3898 21.3954 11.3898 21.6949C11.3898 21.9945 11.6326 22.2373 11.9321 22.2373Z" fill="#D25627"/>
<path d="M12.4745 24.9491C12.7741 24.9491 13.0169 24.7063 13.0169 24.4068C13.0169 24.1072 12.7741 23.8644 12.4745 23.8644C12.175 23.8644 11.9321 24.1072 11.9321 24.4068C11.9321 24.7063 12.175 24.9491 12.4745 24.9491Z" fill="#D25627"/>
<path d="M31.3654 30.0312C29.8906 31.3096 28.0019 32.0092 26.0501 32C23.8878 32.001 21.8138 31.1425 20.2848 29.6135C18.7558 28.0845 17.8973 26.0105 17.8983 23.8481C17.8891 21.8964 18.5887 20.0077 19.8671 18.5329C19.9636 18.414 20.1059 18.3415 20.2588 18.3332C20.4117 18.325 20.561 18.3817 20.6698 18.4895L21.8088 19.6285C19.492 21.9683 19.5013 25.7404 21.8296 28.0687C24.1579 30.397 27.93 30.4063 30.2698 28.0895L31.4088 29.2285C31.5166 29.3373 31.5733 29.4865 31.565 29.6395C31.5568 29.7924 31.4843 29.9347 31.3654 30.0312Z" fill="#F0C419"/>
<path d="M30.2697 28.0895C29.4134 28.9485 28.313 29.5224 27.1185 29.7329C26.7649 29.8026 26.4051 29.8371 26.0446 29.8359H26.0338C24.6407 29.831 23.2934 29.3378 22.2263 28.442C21.9415 28.2151 21.6832 27.9567 21.4562 27.6719C20.5605 26.6048 20.0672 25.2575 20.0623 23.8644V23.8536C20.0611 23.4931 20.0956 23.1334 20.1653 22.7797C20.3759 21.5852 20.9497 20.4848 21.8087 19.6285L30.2697 28.0895Z" fill="#F3D55B"/>
<path d="M27.1186 29.7329C26.7649 29.8026 26.4052 29.8371 26.0447 29.8359H26.0338L26.0284 24.6346L22.2264 28.442C21.9415 28.2151 21.6832 27.9567 21.4562 27.6719L25.2636 23.8698L20.0623 23.8644V23.8536C20.0611 23.4931 20.0956 23.1334 20.1653 22.7797L24.9653 22.7851L27.1131 24.9329L27.1186 29.7329Z" fill="#F29C1F"/>
<path d="M7.0453 22.2319C6.74576 22.2319 6.50293 21.989 6.50293 21.6895V20.6047C6.50293 17.8386 7.88706 16.5695 8.71255 16.0591C8.96645 15.9119 9.29137 15.9934 9.44581 16.2429C9.60024 16.4925 9.52816 16.8196 9.28313 16.9812C8.64964 17.3722 7.58767 18.3626 7.58767 20.6037V21.6884C7.58796 21.8324 7.53095 21.9707 7.4292 22.0726C7.32746 22.1746 7.18934 22.2319 7.0453 22.2319Z" fill="#805333"/>
<path d="M21.6135 7.59322L19.3409 13.7492C19.2216 13.7003 19.1023 13.6515 18.9829 13.5919L18.9775 13.5864C18.772 13.4816 18.5579 13.3945 18.3375 13.3261L20.4528 7.59322H21.6135Z" fill="#DF4D60"/>
<path d="M18.983 13.5919C19.1023 13.6515 19.2217 13.7003 19.341 13.7492L13.5268 29.478C13.4473 29.6906 13.2439 29.8313 13.0169 29.8305C12.9523 29.8303 12.8881 29.8193 12.8271 29.798C12.5475 29.6911 12.4051 29.3798 12.5071 29.0983L18.3376 13.3261C18.5579 13.3946 18.7721 13.4816 18.9776 13.5864L18.983 13.5919Z" fill="#C03A2B"/>
</g>
<defs>
<clipPath id="clip0">
<rect width="32" height="32" fill="white"/>
</clipPath>
</defs>
</svg>
